<svg xmlns="http://www.w3.org/2000/svg" width="32" height="32" viewBox="0 0 32 32" fill="none">
  <path d="M24.5936 6.84602H6.65865C4.61032 6.84602 2.94531 8.64493 2.94531 10.8531V21.1473C2.94531 23.3558 4.61064 25.1544 6.65865 25.1544H24.5936C26.642 25.1544 28.307 23.3555 28.307 21.1473L28.3073 10.8531C28.3073 8.64461 26.642 6.8457 24.5939 6.8457L24.5936 6.84602ZM20.5728 15.8799L26.5258 12.4069V19.5532L20.5728 15.8799ZM6.65865 8.6268H24.5936H24.6203C25.9338 8.64916 26.3391 10.4524 25.2036 11.1158L16.1204 16.4144C15.8086 16.5971 15.448 16.5971 15.1318 16.4144L6.04864 11.1158C4.91316 10.4524 5.31411 8.64922 6.63191 8.6268H6.65865ZM4.72617 12.4025L10.6791 15.8755L4.72617 19.5488V12.4025ZM24.594 23.3733H6.65905H6.63234C5.30548 23.3509 4.88249 21.5477 6.009 20.8532L12.425 16.8948L14.2373 17.9502C15.0967 18.4533 16.1607 18.4533 17.0201 17.9502L18.8324 16.8948L25.2441 20.8532C26.3706 21.5477 25.9476 23.3509 24.6208 23.3733H24.594Z" fill="#FAFAFA"/>
</svg>