<svg xmlns="http://www.w3.org/2000/svg" width="24" height="24" viewBox="0 0 24 24" fill="none">
  <rect x="0.8" y="0.8" width="22.4" height="22.4" rx="5.6" stroke="white" stroke-width="1.6"/>
  <path fill-rule="evenodd" clip-rule="evenodd" d="M7.58965 5.01367C6.71311 5.01367 6 5.72601 6 6.60158C6 7.47754 6.71311 8.19015 7.58965 8.19015C8.4655 8.19015 9.17803 7.4775 9.17803 6.60158C9.17806 5.72601 8.4655 5.01367 7.58965 5.01367ZM8.79397 8.86133H6.38495C6.27804 8.86133 6.19141 8.948 6.19141 9.05488V16.794C6.19141 16.9009 6.27804 16.9876 6.38495 16.9876H8.79397C8.90089 16.9876 8.98752 16.9009 8.98752 16.794V9.05488C8.98752 8.948 8.90089 8.86133 8.79397 8.86133ZM12.8035 9.55651C13.2373 9.0839 13.9526 8.66797 14.9201 8.66797C17.6335 8.66797 17.9993 10.6293 17.9993 12.548V16.7931C17.9993 16.9 17.9127 16.9866 17.8058 16.9866H15.4011C15.2942 16.9866 15.2076 16.9 15.2076 16.7931V13.0303C15.2076 11.9768 15.1297 11.1709 14.1502 11.1709C13.2507 11.1709 12.9002 11.6736 12.9002 12.9639V16.793C12.9002 16.8999 12.8136 16.9866 12.7067 16.9866H10.3029C10.196 16.9866 10.1094 16.8999 10.1094 16.793V9.05387C10.1094 8.94699 10.196 8.86032 10.3029 8.86032H12.61C12.7169 8.86032 12.8035 8.94699 12.8035 9.05387V9.55651Z" fill="#FAFAFA"/>
</svg>