<svg xmlns="http://www.w3.org/2000/svg" width="32" height="32" viewBox="0 0 32 32" fill="none">
  <path d="M28.4328 20.9225L25.5413 18.0387C24.9702 17.4479 24.2802 17.138 23.5488 17.138C22.8223 17.138 22.1273 17.4479 21.5393 18.0314L20.0328 19.5326C19.9575 19.4939 19.8846 19.4576 19.8165 19.4237C19.6392 19.3365 19.4691 19.2493 19.3233 19.1573C17.7949 18.1912 16.4026 16.9249 15.0638 15.2905C14.4733 14.5472 14.0651 13.9225 13.7687 13.3075C14.1502 12.9515 14.5098 12.5883 14.85 12.2397C14.9933 12.0944 15.144 11.9443 15.2898 11.799C15.8923 11.1985 16.2107 10.4988 16.2107 9.77722C16.2107 9.05084 15.8924 8.35107 15.2898 7.75543L13.8537 6.32445C13.6909 6.16222 13.5354 6.00484 13.3751 5.83778L13.3678 5.83052C13.0543 5.50848 12.7166 5.1671 12.3788 4.85473C11.8054 4.2954 11.1202 4 10.3961 4C9.67682 4 8.98436 4.29782 8.39391 4.85956L6.58368 6.66342C5.8523 7.38498 5.43922 8.26632 5.35418 9.28328C5.25698 10.4939 5.4781 11.7724 6.04913 13.3002C6.90928 15.6295 8.20441 17.7844 10.124 20.0823C12.4493 22.8523 15.258 25.0434 18.4682 26.5957L18.4706 26.5981C19.7123 27.184 21.3743 27.8717 23.2137 27.9903H23.2356C23.3425 27.9952 23.4518 28 23.5684 28C24.8878 28 25.9521 27.5448 26.8196 26.6078C26.8342 26.5908 26.8536 26.5714 26.873 26.5448C27.116 26.2567 27.393 25.9855 27.6895 25.7022L27.7575 25.6368C28.0345 25.3729 28.2532 25.155 28.4476 24.954C29.0283 24.3511 29.3345 23.6514 29.332 22.9274C29.332 22.201 29.021 21.5085 28.433 20.9226L28.4328 20.9225ZM7.35896 9.45297C7.40756 8.90334 7.6141 8.4651 8.00531 8.07526L9.79612 6.29074C9.99293 6.10188 10.1995 6.00019 10.3914 6.00019C10.6247 6.00019 10.8312 6.15999 10.9624 6.29316L10.977 6.30769C11.2492 6.55951 11.5116 6.82585 11.7886 7.10673L11.915 7.23506C11.9976 7.3198 12.0826 7.40455 12.1677 7.49171C12.2503 7.57404 12.3329 7.65878 12.4155 7.74353L13.8564 9.17938C14.0071 9.3295 14.1869 9.5571 14.1869 9.78471C14.1869 10.0123 14.0071 10.2399 13.8564 10.39C13.7811 10.4651 13.7058 10.5402 13.6304 10.6176C13.5575 10.6927 13.4822 10.7678 13.4069 10.8428L13.3048 10.9445C12.8991 11.3537 12.5127 11.7411 12.0972 12.1116L12.0559 12.1527C11.4266 12.7798 11.6428 13.4287 11.7133 13.6418C11.7181 13.6588 11.723 13.6709 11.7279 13.6854L11.7376 13.7096C12.1312 14.6491 12.6706 15.5256 13.4871 16.5498L13.4895 16.5522C14.9596 18.3585 16.5098 19.7653 18.2326 20.8573C18.4221 20.9808 18.614 21.0776 18.8011 21.1696C18.8352 21.1866 18.8716 21.2035 18.9056 21.2229L18.9081 21.2253C19.0854 21.3125 19.2555 21.3997 19.4013 21.4917L19.4451 21.5159C19.4597 21.5231 19.4742 21.5328 19.4888 21.5401C19.7026 21.6491 19.9238 21.7047 20.1449 21.7047C20.5191 21.7047 20.8593 21.5546 21.1557 21.2568L22.9586 19.4602C23.0996 19.3198 23.3134 19.1551 23.5466 19.1551C23.7848 19.1551 23.9913 19.3391 24.0958 19.4505L24.1006 19.4554L27.0116 22.3512C27.4295 22.7677 27.4222 23.1358 26.9922 23.5813L26.9873 23.5861C26.7832 23.804 26.5669 24.0122 26.3628 24.2084L26.3045 24.2641C25.9789 24.5788 25.6436 24.9033 25.3301 25.2762C24.8539 25.7846 24.312 26.0098 23.5734 26.0098C23.5053 26.0098 23.4276 26.005 23.3498 26.0001C21.8409 25.9033 20.4194 25.31 19.3479 24.8016C16.398 23.3779 13.8153 21.3633 11.6746 18.8111C9.90805 16.6925 8.72231 14.724 7.93748 12.6148C7.47339 11.3703 7.28629 10.363 7.35916 9.45259L7.35896 9.45297Z" fill="#FAFAFA"/>
</svg>