<svg width="52" height="210" viewBox="0 0 52 210" fill="none" xmlns="http://www.w3.org/2000/svg">
<g opacity="0.2">
<path d="M39.5 252.5L41.8644 249.939C47.2472 244.107 46.965 234.965 41.3535 229.353V229.353C35.6926 223.693 35.5891 214.411 41.25 208.75V208.75C46.9109 203.089 46.9109 193.911 41.25 188.25V188.25C35.5891 182.589 35.5891 173.411 41.25 167.75V167.75C46.9109 162.089 46.9109 152.911 41.25 147.25V147.25C35.5891 141.589 35.5891 132.411 41.25 126.75V126.75C46.9109 121.089 46.9109 111.911 41.25 106.25V106.25C35.5891 100.589 35.5891 91.4109 41.25 85.75V85.75C46.9109 80.0891 46.9109 70.9109 41.25 65.25V65.25C35.5891 59.5891 35.5891 50.4109 41.25 44.75V44.75C46.9109 39.0891 46.9109 29.9109 41.25 24.25L40.9365 23.9365C35.3532 18.3532 35.079 9.38896 40.3107 3.47483L42.5 1" stroke="#333333" stroke-width="2" stroke-linecap="round"/>
<path d="M19.5 252.5L21.8644 249.939C27.2472 244.107 26.965 234.965 21.3535 229.353V229.353C15.6926 223.693 15.5891 214.411 21.25 208.75V208.75C26.9109 203.089 26.9109 193.911 21.25 188.25V188.25C15.5891 182.589 15.5891 173.411 21.25 167.75V167.75C26.9109 162.089 26.9109 152.911 21.25 147.25V147.25C15.5891 141.589 15.5891 132.411 21.25 126.75V126.75C26.9109 121.089 26.9109 111.911 21.25 106.25V106.25C15.5891 100.589 15.5891 91.4109 21.25 85.75V85.75C26.9109 80.0891 26.9109 70.9109 21.25 65.25V65.25C15.5891 59.5891 15.5891 50.4109 21.25 44.75V44.75C26.9109 39.0891 26.9109 29.9109 21.25 24.25L20.9365 23.9365C15.3532 18.3532 15.079 9.38896 20.3107 3.47483L22.5 1" stroke="#333333" stroke-width="2" stroke-linecap="round"/>
</g>
</svg>
